<svg xmlns="http://www.w3.org/2000/svg" viewBox="0 0 900 1110" font-family="'Segoe UI', system-ui, -apple-system, sans-serif">
  <defs>
    <radialGradient id="glow" cx="50%" cy="0%" r="70%">
      <stop offset="0%" stop-color="#5cc8ff" stop-opacity="0.14"/>
      <stop offset="60%" stop-color="#5cc8ff" stop-opacity="0"/>
    </radialGradient>
    <radialGradient id="orb" cx="34%" cy="30%" r="80%">
      <stop offset="0%" stop-color="#ffffff"/>
      <stop offset="52%" stop-color="#5cc8ff"/>
      <stop offset="100%" stop-color="#1c7fe6"/>
    </radialGradient>
  </defs>

  <rect width="900" height="1110" fill="#090c12"/>
  <rect width="900" height="1110" fill="url(#glow)"/>

  <!-- header -->
  <circle cx="46" cy="38" r="16" fill="#5cc8ff" opacity="0.13"/>
  <circle cx="46" cy="38" r="9" fill="url(#orb)"/>
  <text x="66" y="44" font-size="17" letter-spacing="6" fill="#e7edf6">JARVIS</text>
  <text x="860" y="44" text-anchor="end" font-family="ui-monospace, Consolas, monospace" font-size="13" letter-spacing="3" fill="#a7ddff">ZIELARCHITEKTUR &#183; DER SIGNALWEG</text>

  <!-- ambient frame = Pr&#228;senz -->
  <rect x="24" y="76" width="852" height="982" rx="20" fill="none" stroke="#e7edf6" stroke-opacity="0.22" stroke-dasharray="2 5"/>
  <circle cx="48" cy="99" r="5" fill="#5cc8ff"/>
  <text x="62" y="103" font-family="ui-monospace, Consolas, monospace" font-size="12" letter-spacing="1.5" fill="#e7edf6" fill-opacity="0.6">PR&#196;SENZ &#183; DER ORB IST JARVIS &#8212; DAUERZUSTAND, L&#196;UFT IMMER</text>
  <line x1="24" y1="114" x2="876" y2="114" stroke="#e7edf6" stroke-opacity="0.1"/>

  <!-- WAHRNEHMUNG -->
  <text x="40" y="140" font-family="ui-monospace, Consolas, monospace" font-size="11" letter-spacing="2.5" fill="#6b7686">WAHRNEHMUNG</text>
  <g>
    <rect x="40" y="150" width="199" height="58" rx="12" fill="#111825" stroke="#e7edf6" stroke-opacity="0.12"/>
    <rect x="40" y="150" width="4" height="58" rx="2" fill="#43d6a2"/>
    <text x="56" y="176" font-size="15" font-weight="620" fill="#e7edf6">Wake &amp; Sprache</text>
    <text x="56" y="195" font-size="11.5" fill="#e7edf6" fill-opacity="0.55">h&#246;rt zu, meldet ein Ereignis</text>
  </g>
  <g>
    <rect x="247" y="150" width="199" height="58" rx="12" fill="#111825" stroke="#e7edf6" stroke-opacity="0.12"/>
    <rect x="247" y="150" width="4" height="58" rx="2" fill="#43d6a2"/>
    <text x="263" y="176" font-size="15" font-weight="620" fill="#e7edf6">Kan&#228;le</text>
    <text x="263" y="195" font-size="11.5" fill="#e7edf6" fill-opacity="0.55">Dashboard &#183; Telegram &#183; Sprache</text>
  </g>
  <g>
    <rect x="454" y="150" width="199" height="58" rx="12" fill="#111825" stroke="#e7edf6" stroke-opacity="0.12"/>
    <rect x="454" y="150" width="4" height="58" rx="2" fill="#f5b53d"/>
    <text x="470" y="176" font-size="15" font-weight="620" fill="#e7edf6">Sensoren</text>
    <text x="470" y="195" font-size="11.5" fill="#e7edf6" fill-opacity="0.55">Mail &#183; Kalender &#8212; nur Pull</text>
  </g>
  <g>
    <rect x="661" y="150" width="199" height="58" rx="12" fill="#111825" stroke="#e7edf6" stroke-opacity="0.12"/>
    <rect x="661" y="150" width="4" height="58" rx="2" fill="#43d6a2"/>
    <text x="677" y="176" font-size="15" font-weight="620" fill="#e7edf6">Scheduler</text>
    <text x="677" y="195" font-size="11.5" fill="#e7edf6" fill-opacity="0.55">meldet, handelt nie</text>
  </g>

  <path d="M450 216 l0 14" stroke="#6b7686" stroke-width="1.5"/>
  <path d="M444 225 l6 6 l6 -6" fill="none" stroke="#6b7686" stroke-width="1.5"/>

  <!-- WEICHE -->
  <text x="40" y="256" font-family="ui-monospace, Consolas, monospace" font-size="11" letter-spacing="2.5" fill="#6b7686">WEICHE</text>
  <g>
    <rect x="220" y="266" width="460" height="58" rx="12" fill="#0e1f2b" stroke="#2f6f9a"/>
    <rect x="220" y="266" width="4" height="58" rx="2" fill="#5cc8ff"/>
    <text x="238" y="292" font-size="15" font-weight="620" fill="#e7edf6">Dirigent &#8212; die Weiche</text>
    <text x="238" y="311" font-size="11.5" fill="#e7edf6" fill-opacity="0.6">~0,5 s: Plauderei oder echter Auftrag?</text>
  </g>

  <!-- ZWEI TAKTE -->
  <text x="40" y="352" font-family="ui-monospace, Consolas, monospace" font-size="11" letter-spacing="2.5" fill="#6b7686">ZWEI TAKTE &#8212; ANTWORT AUF &#8222;ERSTER TON &#60; 1 S&#8220;</text>
  <g>
    <rect x="40" y="362" width="406" height="58" rx="12" fill="#111825" stroke="#e7edf6" stroke-opacity="0.12"/>
    <rect x="40" y="362" width="4" height="58" rx="2" fill="#43d6a2"/>
    <text x="56" y="388" font-size="15" font-weight="620" fill="#e7edf6">Reflex-Takt</text>
    <text x="56" y="407" font-size="11.5" fill="#e7edf6" fill-opacity="0.55">streamt sofort &#183; keine Werkzeuge</text>
  </g>
  <g>
    <rect x="454" y="362" width="406" height="58" rx="12" fill="#20180b" stroke="#7a5a20"/>
    <rect x="454" y="362" width="4" height="58" rx="2" fill="#ffb454"/>
    <text x="470" y="388" font-size="15" font-weight="620" fill="#ffb454">Kern-Takt &#183; LLM-Kern</text>
    <text x="470" y="407" font-size="11.5" fill="#e7edf6" fill-opacity="0.6">das LLM f&#228;hrt &#8212; mit Werkzeugen, hinter Gates</text>
  </g>

  <path d="M450 428 l0 14" stroke="#6b7686" stroke-width="1.5"/>
  <path d="M444 437 l6 6 l6 -6" fill="none" stroke="#6b7686" stroke-width="1.5"/>

  <!-- KONTEXT -->
  <text x="40" y="468" font-family="ui-monospace, Consolas, monospace" font-size="11" letter-spacing="2.5" fill="#6b7686">KONTEXT, GRENZEN &amp; DENKLEISTUNG</text>
  <g>
    <rect x="40" y="478" width="268" height="58" rx="12" fill="#111825" stroke="#e7edf6" stroke-opacity="0.12"/>
    <rect x="40" y="478" width="4" height="58" rx="2" fill="#43d6a2"/>
    <text x="56" y="504" font-size="15" font-weight="620" fill="#e7edf6">Memory Curator</text>
    <text x="56" y="523" font-size="11.5" fill="#e7edf6" fill-opacity="0.55">Fakten mit Herkunft &#183; Dedupe</text>
  </g>
  <g>
    <rect x="316" y="478" width="268" height="58" rx="12" fill="#111825" stroke="#e7edf6" stroke-opacity="0.12"/>
    <rect x="316" y="478" width="4" height="58" rx="2" fill="#43d6a2"/>
    <text x="332" y="504" font-size="15" font-weight="620" fill="#e7edf6">Policy Engine</text>
    <text x="332" y="523" font-size="11.5" fill="#e7edf6" fill-opacity="0.55">Rechte &#183; Datenschutz &#183; Kosten</text>
  </g>
  <g>
    <rect x="592" y="478" width="268" height="58" rx="12" fill="none" stroke="#e7edf6" stroke-opacity="0.28" stroke-dasharray="5 4"/>
    <line x1="596" y1="484" x2="596" y2="530" stroke="#7a8595" stroke-width="4" stroke-dasharray="6 5"/>
    <text x="612" y="504" font-size="15" font-weight="620" fill="#e7edf6" fill-opacity="0.72">Modell-Router</text>
    <text x="612" y="523" font-size="11.5" fill="#e7edf6" fill-opacity="0.5">lokal zuerst &#8212; noch nicht real</text>
  </g>

  <!-- Vertrauensgrenze -->
  <rect x="190" y="548" width="520" height="38" rx="19" fill="#0d131e" stroke="#e7edf6" stroke-opacity="0.22"/>
  <text x="450" y="572" text-anchor="middle" font-family="ui-monospace, Consolas, monospace" font-size="13" letter-spacing="1.5" fill="#e7edf6">VORSCHLAG <tspan fill="#5cc8ff">&#8594;</tspan> FREIGABE <tspan fill="#5cc8ff">&#8594;</tspan> WIRKUNG</text>

  <g>
    <rect x="40" y="598" width="268" height="58" rx="12" fill="#111825" stroke="#e7edf6" stroke-opacity="0.12"/>
    <rect x="40" y="598" width="4" height="58" rx="2" fill="#43d6a2"/>
    <text x="56" y="624" font-size="15" font-weight="620" fill="#e7edf6">Planner</text>
    <text x="56" y="643" font-size="11.5" fill="#e7edf6" fill-opacity="0.55">Ziel &#8594; pr&#252;fbare Schritte</text>
  </g>
  <g>
    <rect x="316" y="598" width="268" height="58" rx="12" fill="#111825" stroke="#e7edf6" stroke-opacity="0.12"/>
    <rect x="316" y="598" width="4" height="58" rx="2" fill="#43d6a2"/>
    <text x="332" y="624" font-size="15" font-weight="620" fill="#e7edf6">Gate &amp; Freigabe</text>
    <text x="332" y="643" font-size="11.5" fill="#e7edf6" fill-opacity="0.55">Stimme gibt nie frei</text>
  </g>
  <g>
    <rect x="592" y="598" width="268" height="58" rx="12" fill="#111825" stroke="#e7edf6" stroke-opacity="0.12"/>
    <rect x="592" y="598" width="4" height="58" rx="2" fill="#f5b53d"/>
    <text x="608" y="624" font-size="15" font-weight="620" fill="#e7edf6">Workflow-Graph</text>
    <text x="608" y="643" font-size="11.5" fill="#e7edf6" fill-opacity="0.55">Pause/Resume &#183; kein DAG</text>
  </g>

  <path d="M450 664 l0 14" stroke="#6b7686" stroke-width="1.5"/>
  <path d="M444 673 l6 6 l6 -6" fill="none" stroke="#6b7686" stroke-width="1.5"/>

  <!-- KONTROLLIERTE WIRKUNG -->
  <text x="40" y="704" font-family="ui-monospace, Consolas, monospace" font-size="11" letter-spacing="2.5" fill="#6b7686">KONTROLLIERTE WIRKUNG</text>
  <g>
    <rect x="40" y="714" width="268" height="58" rx="12" fill="#111825" stroke="#e7edf6" stroke-opacity="0.12"/>
    <rect x="40" y="714" width="4" height="58" rx="2" fill="#43d6a2"/>
    <text x="56" y="740" font-size="15" font-weight="620" fill="#e7edf6">Executor</text>
    <text x="56" y="759" font-size="11.5" fill="#e7edf6" fill-opacity="0.55">f&#252;hrt nur Freigegebenes aus</text>
  </g>
  <g>
    <rect x="316" y="714" width="268" height="58" rx="12" fill="#111825" stroke="#e7edf6" stroke-opacity="0.12"/>
    <rect x="316" y="714" width="4" height="58" rx="2" fill="#43d6a2"/>
    <text x="332" y="740" font-size="15" font-weight="620" fill="#e7edf6">Capability Registry</text>
    <text x="332" y="759" font-size="11.5" fill="#e7edf6" fill-opacity="0.55">Vertrag &#183; Risiko &#183; Undo</text>
  </g>
  <g>
    <rect x="592" y="714" width="268" height="58" rx="12" fill="#111825" stroke="#e7edf6" stroke-opacity="0.12"/>
    <rect x="592" y="714" width="4" height="58" rx="2" fill="#f5b53d"/>
    <text x="608" y="740" font-size="15" font-weight="620" fill="#e7edf6">Werkzeuge &amp; Dienste</text>
    <text x="608" y="759" font-size="11.5" fill="#e7edf6" fill-opacity="0.55">Datei &#183; Kalender &#183; Web &#183; Spotify</text>
  </g>

  <!-- SPEZIALISTEN -->
  <text x="40" y="800" font-family="ui-monospace, Consolas, monospace" font-size="11" letter-spacing="2.5" fill="#6b7686">SPEZIALISTEN</text>
  <g>
    <rect x="40" y="810" width="820" height="58" rx="12" fill="none" stroke="#e7edf6" stroke-opacity="0.28" stroke-dasharray="5 4"/>
    <line x1="44" y1="816" x2="44" y2="862" stroke="#7a8595" stroke-width="4" stroke-dasharray="6 5"/>
    <text x="60" y="836" font-size="15" font-weight="620" fill="#e7edf6" fill-opacity="0.72">Rechercheur &#183; Assistent &#183; Analyst &#183; Builder</text>
    <text x="60" y="855" font-size="11.5" fill="#e7edf6" fill-opacity="0.5">getrennte Rollen-Agenten &#8212; heute nur ein generischer Bau-Agent</text>
  </g>

  <path d="M450 876 l0 14" stroke="#6b7686" stroke-width="1.5"/>
  <path d="M444 885 l6 6 l6 -6" fill="none" stroke="#6b7686" stroke-width="1.5"/>

  <!-- VERIFIKATION -->
  <text x="40" y="916" font-family="ui-monospace, Consolas, monospace" font-size="11" letter-spacing="2.5" fill="#6b7686">VERIFIKATION &#8212; WIRKUNG BEWEISEN, NICHT BEHAUPTEN</text>
  <g>
    <rect x="40" y="926" width="406" height="58" rx="12" fill="#111825" stroke="#e7edf6" stroke-opacity="0.12"/>
    <rect x="40" y="926" width="4" height="58" rx="2" fill="#43d6a2"/>
    <text x="56" y="952" font-size="15" font-weight="620" fill="#e7edf6">Verifier</text>
    <text x="56" y="971" font-size="11.5" fill="#e7edf6" fill-opacity="0.55">pr&#252;ft den echten Zustand</text>
  </g>
  <g>
    <rect x="454" y="926" width="406" height="58" rx="12" fill="#111825" stroke="#e7edf6" stroke-opacity="0.12"/>
    <rect x="454" y="926" width="4" height="58" rx="2" fill="#43d6a2"/>
    <text x="470" y="952" font-size="15" font-weight="620" fill="#e7edf6">Recovery &amp; Undo</text>
    <text x="470" y="971" font-size="11.5" fill="#e7edf6" fill-opacity="0.55">repariert oder rollt sicher zur&#252;ck</text>
  </g>

  <!-- Schleife -->
  <rect x="40" y="996" width="820" height="40" rx="12" fill="#1a1408" stroke="#7a5a20" stroke-dasharray="5 4"/>
  <text x="60" y="1021" font-size="12" fill="#e7edf6" fill-opacity="0.62"><tspan fill="#ffb454" font-size="15">&#8635;</tspan>  Fehlschlag &#8594; Recovery &#8594; Replan   &#183;   Memory schreibt zur&#252;ck nach oben   &#183;   RUNNING&#8594;COMPLETED verboten (immer &#252;ber VERIFYING)</text>

  <!-- ambient bottom = Observability -->
  <line x1="24" y1="1044" x2="876" y2="1044" stroke="#e7edf6" stroke-opacity="0.1"/>
  <circle cx="48" cy="1058" r="5" fill="#f5b53d"/>
  <text x="62" y="1062" font-family="ui-monospace, Consolas, monospace" font-size="12" letter-spacing="1.5" fill="#e7edf6" fill-opacity="0.6">OBSERVABILITY &#183; BEGLEITET JEDEN SCHRITT &#8212; KOSTEN &#183; LOGGING (TRACING/METRIKEN/REPLAY = ZIEL)</text>

  <!-- legend -->
  <rect x="40" y="1082" width="13" height="13" rx="3" fill="#43d6a2"/>
  <text x="60" y="1093" font-size="13" fill="#e7edf6" fill-opacity="0.7">Live &#8212; im Code gebaut</text>
  <rect x="230" y="1082" width="13" height="13" rx="3" fill="#f5b53d"/>
  <text x="250" y="1093" font-size="13" fill="#e7edf6" fill-opacity="0.7">Teilweise &#8212; L&#252;cken offen</text>
  <rect x="440" y="1082" width="13" height="13" rx="3" fill="none" stroke="#7a8595" stroke-dasharray="3 2"/>
  <text x="460" y="1093" font-size="13" fill="#e7edf6" fill-opacity="0.7">Ziel &#8212; noch nicht real</text>
  <text x="860" y="1093" text-anchor="end" font-family="ui-monospace, Consolas, monospace" font-size="12" fill="#e7edf6" fill-opacity="0.45">12 &#183; 5 &#183; 2 &#8212; Stand 2026-07-24</text>
</svg>
